<?xml version="1.0" encoding="UTF-8" standalone="no"?>
<svg width="50.052532mm" height="8.1835756mm" viewBox="0 0 50.052532 8.1835757" version="1.1"
   xmlns="http://www.w3.org/2000/svg">
   <g transform="translate(-39.158726,-85.761691)">
      <g>
         <g aria-label="marsi">
            <path d="m 39.158726,93.172068 0.842323,-0.144694 v -3.994575 l -0.842323,-0.144694 v -0.656288 h 1.756993 l 0.06718,0.728635 q 0.268717,-0.397907 0.692462,-0.614948 0.423746,-0.21704 0.98185,-0.21704 0.558103,0 0.95601,0.258381 0.403075,0.258382 0.604613,0.775144 0.263549,-0.475421 0.697629,-0.754473 0.434081,-0.279052 1.012855,-0.279052 0.857826,0 1.353918,0.58911 0.496093,0.583941 0.496093,1.76216 v 2.54764 l 0.842323,0.144694 v 0.651121 h -2.707837 v -0.651121 l 0.842324,-0.144694 v -2.557975 q 0,-0.82682 -0.28422,-1.167884 -0.284219,-0.346231 -0.842323,-0.346231 -0.532266,0 -0.857826,0.377237 -0.320393,0.372069 -0.372069,0.940508 v 2.754345 l 0.842323,0.144694 v 0.651121 h -2.702669 v -0.651121 l 0.842323,-0.144694 v -2.557975 q 0,-0.785479 -0.294554,-1.147213 -0.289388,-0.366902 -0.842324,-0.366902 -0.465086,0 -0.764808,0.191203 -0.299723,0.191202 -0.459919,0.537433 v 3.343454 l 0.842323,0.144694 v 0.651121 h -2.702669 z" />
            <path d="m 53.007966,93.823189 q -0.04651,-0.227376 -0.07235,-0.408243 -0.02584,-0.180867 -0.03617,-0.361734 -0.294555,0.377237 -0.73897,0.630451 -0.439249,0.248046 -0.940509,0.248046 -0.873328,0 -1.32808,-0.423745 -0.454751,-0.428913 -0.454751,-1.204057 0,-0.795815 0.640786,-1.224728 0.645953,-0.434081 1.767328,-0.434081 h 1.049029 v -0.651121 q 0,-0.490924 -0.310058,-0.775144 -0.310058,-0.289387 -0.862994,-0.289387 -0.382404,0 -0.676959,0.09819 -0.289387,0.09819 -0.470254,0.268717 l -0.10852,0.589109 h -0.785479 v -1.085201 q 0.382404,-0.30489 0.925005,-0.485757 0.542601,-0.186035 1.178219,-0.186035 0.950843,0 1.539953,0.485757 0.589109,0.485757 0.589109,1.390092 v 2.692333 q 0,0.10852 0,0.211873 0.0052,0.103352 0.0155,0.206705 l 0.41341,0.05684 v 0.651121 z m -1.638137,-0.744138 q 0.506427,0 0.925005,-0.242879 0.418578,-0.242878 0.599445,-0.583942 v -0.919837 h -1.085202 q -0.625283,0 -0.992184,0.289387 -0.361734,0.289387 -0.361734,0.702797 0,0.366902 0.227375,0.563271 0.227376,0.191203 0.687295,0.191203 z" />
            <path d="m 55.188705,88.888105 v -0.656288 h 1.751826 l 0.09819,0.811317 q 0.23771,-0.428913 0.583941,-0.671791 0.351399,-0.242879 0.800983,-0.242879 0.118855,0 0.242878,0.02067 0.129191,0.0155 0.19637,0.03617 l -0.134358,0.945676 -0.578775,-0.03101 q -0.403074,0 -0.676959,0.191202 -0.273884,0.186035 -0.423745,0.527098 v 3.209096 l 0.842323,0.144694 v 0.651121 h -2.702669 v -0.651121 l 0.842323,-0.144694 v -3.994575 z"/>
            <path d="m 63.84448,89.98881 h -0.764809 l -0.165364,-0.671792 q -0.186034,-0.175699 -0.470254,-0.279052 -0.279052,-0.10852 -0.635618,-0.10852 -0.542601,0 -0.80615,0.237711 -0.263549,0.237711 -0.263549,0.573607 0,0.330728 0.232544,0.52193 0.232543,0.191202 0.945675,0.341063 1.059364,0.227376 1.576126,0.620116 0.516763,0.387572 0.516763,1.04386 0,0.744138 -0.604612,1.204057 -0.599445,0.459919 -1.570959,0.459919 -0.635618,0 -1.142045,-0.144694 -0.506428,-0.149861 -0.904335,-0.428913 l -0.0052,-1.276403 h 0.764809 l 0.191202,0.749305 q 0.1757,0.160197 0.475422,0.232544 0.30489,0.07235 0.620115,0.07235 0.542601,0 0.847491,-0.21704 0.310058,-0.222208 0.310058,-0.578774 0,-0.335896 -0.258382,-0.552936 -0.253213,-0.21704 -0.966346,-0.377237 -1.018022,-0.222208 -1.534785,-0.604612 -0.516763,-0.382405 -0.516763,-1.033526 0,-0.682126 0.578774,-1.162716 0.583942,-0.480589 1.514115,-0.480589 0.635618,0 1.142046,0.165364 0.506427,0.165364 0.842323,0.459919 z" />
            <path d="m 64.960687,93.172068 0.842324,-0.144694 v -3.994575 l -0.842324,-0.144694 v -0.656288 h 1.860346 v 4.795557 l 0.842323,0.144694 v 0.651121 h -2.702669 z m 1.860346,-6.371684 h -1.018022 v -1.038693 h 1.018022 z" />
         </g>
         <g aria-label=".dev">
            <path d="m 70.364925,93.836746 h -0.444416 v -0.671791 h 0.444416 z" />
            <path d="m 76.007974,92.942747 q -0.273884,0.459919 -0.759641,0.733803 -0.485757,0.268716 -1.147214,0.268716 -0.987016,0 -1.54512,-0.754473 -0.552936,-0.754474 -0.552936,-2.04638 v -0.10852 q 0,-1.328081 0.558104,-2.108392 0.558103,-0.785479 1.550288,-0.785479 0.661456,0 1.136878,0.304889 0.475421,0.299723 0.759641,0.826821 V 86.0543 h -0.842323 v -0.279052 h 0.842323 0.279052 v 7.782446 h 0.842323 v 0.279052 h -1.11104 z M 72.29245,91.144413 q 0,1.157548 0.454751,1.839675 0.459919,0.682127 1.348751,0.682127 0.728635,0 1.209225,-0.330729 0.485756,-0.330728 0.702797,-0.883664 v -2.619987 q -0.201538,-0.599444 -0.651121,-1.002519 -0.449584,-0.408243 -1.250566,-0.408243 -0.888832,0 -1.353918,0.728636 -0.459919,0.723467 -0.459919,1.886184 z" />
            <path d="m 80.617497,93.945266 q -0.956011,0 -1.653641,-0.769976 -0.692462,-0.775144 -0.692462,-1.922357 v -0.330728 q 0,-1.204057 0.671792,-1.989537 0.671791,-0.790646 1.658808,-0.790646 0.945676,0 1.539953,0.620115 0.599445,0.620115 0.599445,1.663976 v 0.428913 h -4.190946 v 0.06718 0.330728 q 0,1.012855 0.594277,1.715652 0.594277,0.69763 1.472774,0.69763 0.625283,0 1.043861,-0.170532 0.423745,-0.170532 0.723467,-0.511595 l 0.149862,0.21704 q -0.330729,0.366902 -0.80615,0.558104 -0.470254,0.186034 -1.11104,0.186034 z m -0.0155,-5.524193 q -0.831988,0 -1.384924,0.60978 -0.552936,0.604613 -0.625283,1.514115 l 0.0155,0.03101 h 3.85505 v -0.170532 q 0,-0.852658 -0.516763,-1.41593 -0.516763,-0.568439 -1.343583,-0.568439 z" />
            <path d="M 85.242523,88.524426 H 84.50872 l 1.617467,4.128934 0.263549,0.754473 h 0.03101 l 0.268717,-0.754473 1.6123,-4.128934 h -0.733803 v -0.279052 h 1.643305 v 0.279052 h -0.60978 l -2.067051,5.307153 0.0052,0.0052 H 86.27088 l -2.061883,-5.31232 h -0.60978 v -0.279052 h 1.643306 z" />
         </g>
      </g>
   </g>
</svg>
